<?xml version="1.0" standalone="no"?>
<!DOCTYPE svg PUBLIC "-//W3C//DTD SVG 20010904//EN"
 "http://www.w3.org/TR/2001/REC-SVG-20010904/DTD/svg10.dtd">
<svg version="1.0" xmlns="http://www.w3.org/2000/svg"
 width="980.000000pt" height="127.000000pt" viewBox="0 0 980.000000 127.000000"
 preserveAspectRatio="xMidYMid meet">

<g transform="translate(0.000000,127.000000) scale(0.100000,-0.100000)"
fill="#000000" stroke="none">
<path d="M556 1185 c-10 -7 -44 -17 -75 -20 -84 -9 -137 -32 -173 -74 -18 -21
-51 -47 -73 -59 -50 -25 -76 -53 -108 -117 -14 -27 -37 -60 -52 -73 -22 -19
-25 -28 -19 -50 4 -15 7 -36 6 -47 -8 -155 -8 -159 21 -209 15 -27 27 -61 27
-77 0 -45 16 -75 73 -137 30 -32 57 -70 60 -84 4 -16 17 -29 34 -35 16 -6 42
-15 58 -21 17 -6 59 -22 94 -37 52 -22 72 -26 105 -20 41 7 56 8 159 3 47 -3
61 2 114 35 34 20 73 37 88 37 37 0 65 17 65 41 0 11 22 44 50 73 51 54 80
108 80 149 0 14 11 44 24 68 33 61 39 99 26 164 -8 39 -9 65 -1 85 9 26 6 34
-17 61 -15 18 -40 57 -57 88 -22 41 -44 65 -80 88 -27 17 -68 49 -90 71 -55
53 -93 71 -167 78 -35 4 -73 13 -85 20 -28 18 -63 17 -87 -1z m64 -30 c10 -9
50 -19 93 -24 84 -10 130 -33 162 -80 11 -17 25 -31 31 -31 5 0 31 -13 56 -29
34 -22 53 -44 74 -87 16 -32 37 -67 47 -77 15 -15 19 -38 23 -124 4 -104 -3
-136 -39 -181 -6 -8 -12 -31 -13 -52 -3 -51 -26 -92 -73 -129 -27 -22 -42 -43
-47 -65 -5 -30 -10 -34 -45 -39 -22 -3 -62 -20 -90 -38 -46 -29 -58 -32 -113
-30 -67 3 -91 3 -170 0 -42 -2 -66 3 -106 24 -29 15 -63 27 -76 27 -29 0 -64
28 -64 52 0 10 -26 44 -58 76 -43 42 -61 67 -66 95 -4 20 -4 41 -1 46 3 6 -6
26 -20 46 -35 52 -46 97 -33 142 6 21 8 59 5 86 -3 36 -1 50 10 54 8 3 25 29
40 57 39 79 68 112 115 131 24 10 52 32 63 49 28 42 70 64 140 71 33 4 76 15
95 25 19 9 37 18 39 19 3 0 12 -6 21 -14z"/>
<path d="M820 1066 c0 -2 8 -10 18 -17 15 -13 16 -12 3 4 -13 16 -21 21 -21
13z"/>
<path d="M596 1023 c-4 -9 -4 -14 0 -10 4 4 14 1 23 -6 14 -11 15 -10 1 8 -8
11 -15 21 -16 23 -1 2 -5 -5 -8 -15z"/>
<path d="M810 1036 c0 -2 8 -10 18 -17 15 -13 16 -12 3 4 -13 16 -21 21 -21
13z"/>
<path d="M510 1021 c0 -5 7 -12 16 -15 14 -5 15 -4 4 9 -14 17 -20 19 -20 6z"/>
<path d="M699 1021 c7 -5 11 -13 8 -18 -3 -5 3 -9 13 -10 11 -1 23 3 26 9 5 7
2 9 -9 5 -9 -3 -18 0 -21 9 -3 8 -11 14 -18 14 -10 0 -10 -2 1 -9z"/>
<path d="M446 997 c3 -10 9 -15 12 -12 3 3 0 11 -7 18 -10 9 -11 8 -5 -6z"/>
<path d="M476 988 c3 -5 10 -6 15 -3 13 9 11 12 -6 12 -8 0 -12 -4 -9 -9z"/>
<path d="M394 979 c-3 -6 -1 -16 4 -21 8 -8 11 -5 9 11 -1 24 -3 25 -13 10z"/>
<path d="M219 943 c-13 -16 -12 -17 4 -4 16 13 21 21 13 21 -2 0 -10 -8 -17
-17z"/>
<path d="M806 952 c-3 -5 1 -9 9 -9 8 0 12 4 9 9 -3 4 -7 8 -9 8 -2 0 -6 -4
-9 -8z"/>
<path d="M360 941 c0 -6 5 -13 10 -16 6 -3 10 1 10 9 0 9 -4 16 -10 16 -5 0
-10 -4 -10 -9z"/>
<path d="M555 930 c-60 -11 -90 -25 -136 -67 -110 -99 -121 -275 -25 -388 l25
-30 1 37 c0 46 11 50 128 48 48 -1 118 -1 156 0 80 1 98 -9 89 -53 l-6 -32 23
20 c12 11 34 43 48 70 35 66 37 167 6 236 -53 116 -181 181 -309 159z m-10
-37 c5 -16 2 -20 -21 -26 -4 -1 -9 8 -10 21 -5 26 21 31 31 5z m87 -3 c6 -13
7 -13 7 1 1 20 61 24 61 4 0 -29 -109 -35 -111 -6 -1 13 -2 13 -6 -1 -6 -24
-19 -23 -26 3 -5 18 -2 20 31 17 21 -1 40 -9 44 -18z m-83 -42 c-1 -7 1 -21 6
-32 5 -12 2 -29 -10 -48 -23 -39 -22 -89 4 -140 25 -51 15 -68 -41 -68 -44 0
-77 14 -96 42 -10 13 -20 17 -35 12 -19 -6 -20 -5 -8 10 16 19 52 21 69 4 6
-6 15 -9 18 -5 4 3 -7 14 -24 24 -39 22 -52 48 -19 37 21 -6 21 -6 5 13 -30
33 -19 59 12 31 12 -11 12 -10 1 4 -15 20 -5 42 15 34 17 -7 18 6 2 23 -11 11
-8 13 13 9 21 -4 33 2 55 29 30 36 36 40 33 21z m152 -28 c17 -20 30 -28 42
-24 16 5 18 2 12 -16 -6 -19 -4 -21 14 -15 24 7 29 -13 9 -33 -9 -9 -9 -12 0
-12 7 0 12 5 12 10 0 6 5 10 10 10 16 0 12 -21 -7 -43 -17 -19 -17 -19 5 -13
33 11 27 -11 -8 -29 -16 -9 -30 -20 -30 -26 0 -6 6 -6 19 1 26 13 34 13 57 -6
18 -15 18 -15 -4 -9 -15 4 -24 1 -28 -10 -15 -39 -128 -62 -153 -31 -9 11 -7
22 10 51 28 47 30 116 4 145 -16 18 -17 24 -7 41 7 11 10 24 7 29 -15 23 15 7
36 -20z"/>
<path d="M330 926 c0 -2 8 -10 18 -17 15 -13 16 -12 3 4 -13 16 -21 21 -21 13z"/>
<path d="M845 920 c-3 -5 -1 -10 4 -10 6 0 11 5 11 10 0 6 -2 10 -4 10 -3 0
-8 -4 -11 -10z"/>
<path d="M306 901 c-3 -5 2 -15 12 -22 15 -12 16 -12 5 2 -7 9 -10 19 -6 22 3
4 4 7 0 7 -3 0 -8 -4 -11 -9z"/>
<path d="M815 870 c10 -11 20 -20 23 -20 3 0 -3 9 -13 20 -10 11 -20 20 -23
20 -3 0 3 -9 13 -20z"/>
<path d="M880 860 c-13 -8 -13 -10 2 -10 9 0 20 5 23 10 8 13 -5 13 -25 0z"/>
<path d="M905 830 c-4 -6 1 -7 11 -3 13 5 15 3 9 -7 -5 -9 -4 -11 4 -6 6 4 9
12 6 17 -8 12 -22 12 -30 -1z"/>
<path d="M261 821 c-7 -5 -9 -11 -5 -14 5 -3 15 1 22 9 14 16 5 18 -17 5z"/>
<path d="M916 791 c-4 -5 3 -7 14 -4 23 6 26 13 6 13 -8 0 -17 -4 -20 -9z"/>
<path d="M230 770 c0 -5 7 -10 16 -10 8 0 12 5 9 10 -3 6 -10 10 -16 10 -5 0
-9 -4 -9 -10z"/>
<path d="M233 715 c0 -8 4 -12 9 -9 4 3 8 9 8 15 0 5 -4 9 -8 9 -5 0 -9 -7 -9
-15z"/>
<path d="M226 671 c-3 -5 0 -11 7 -14 8 -3 14 1 14 9 0 16 -13 19 -21 5z"/>
<path d="M236 621 c-3 -5 2 -15 12 -22 15 -12 16 -12 5 2 -7 9 -10 19 -6 22 3
4 4 7 0 7 -3 0 -8 -4 -11 -9z"/>
<path d="M941 577 c-6 -8 -8 -17 -4 -20 3 -4 0 -13 -6 -21 -9 -11 -9 -16 0
-22 9 -5 7 -10 -7 -15 -16 -6 -16 -8 -2 -8 22 -1 34 19 17 30 -11 6 -10 9 4
15 14 5 15 9 6 20 -11 13 -5 18 14 15 5 -1 6 3 2 9 -8 13 -10 13 -24 -3z"/>
<path d="M230 576 c0 -2 7 -7 16 -10 8 -3 12 -2 9 4 -6 10 -25 14 -25 6z"/>
<path d="M245 500 c-3 -6 1 -7 9 -4 18 7 21 14 7 14 -6 0 -13 -4 -16 -10z"/>
<path d="M580 501 c0 -6 3 -11 8 -12 4 0 22 -2 40 -5 17 -2 32 0 32 4 0 4 -12
7 -27 7 -16 -1 -34 3 -40 8 -9 6 -13 5 -13 -2z"/>
<path d="M458 453 c-40 -6 -35 -16 24 -44 73 -34 194 -34 256 1 23 13 42 27
42 31 0 12 -87 22 -118 14 -31 -8 -57 -8 -127 -2 -27 3 -62 3 -77 0z"/>
<path d="M343 392 c-7 -4 -8 -13 -4 -20 6 -10 10 -10 20 2 13 16 2 29 -16 18z"/>
<path d="M840 385 c0 -9 5 -15 11 -13 6 2 11 8 11 13 0 5 -5 11 -11 13 -6 2
-11 -4 -11 -13z"/>
<path d="M979 383 c-13 -16 -12 -17 4 -4 9 7 17 15 17 17 0 8 -8 3 -21 -13z"/>
<path d="M756 338 c-8 -12 -12 -26 -8 -32 4 -7 8 -3 10 9 2 11 9 26 14 33 6 6
8 12 5 12 -3 0 -13 -10 -21 -22z"/>
<path d="M437 333 c-4 -3 -7 -11 -7 -17 0 -6 5 -5 12 2 6 6 9 14 7 17 -3 3 -9
2 -12 -2z"/>
<path d="M469 313 c-7 -10 -9 -15 -5 -11 5 4 16 2 25 -5 14 -10 14 -10 4 4 -7
9 -10 19 -6 22 3 4 4 7 1 7 -3 0 -12 -8 -19 -17z"/>
<path d="M693 311 c-1 -14 4 -17 18 -14 11 3 18 6 17 7 -2 1 -10 7 -18 13 -13
10 -16 8 -17 -6z"/>
<path d="M521 299 c12 -11 23 -19 23 -19 1 0 2 8 2 19 0 13 -7 19 -23 19 l-23
0 21 -19z"/>
<path d="M574 309 c-3 -6 -2 -15 3 -20 5 -5 9 -1 9 11 0 23 -2 24 -12 9z"/>
<path d="M614 309 c-3 -6 -2 -15 3 -20 5 -5 9 -1 9 11 0 23 -2 24 -12 9z"/>
<path d="M646 305 c-3 -8 -1 -15 4 -15 6 0 10 7 10 15 0 8 -2 15 -4 15 -2 0
-6 -7 -10 -15z"/>
<path d="M8316 969 c-20 -16 -26 -29 -26 -59 0 -80 96 -107 147 -41 27 35 11
86 -34 109 -32 17 -57 15 -87 -9z"/>
<path d="M1552 967 c-48 -18 -100 -74 -113 -120 -23 -87 14 -152 156 -276 120
-103 134 -133 90 -176 -40 -41 -87 -34 -138 18 l-42 44 -45 -28 c-25 -16 -49
-30 -55 -32 -14 -5 39 -81 77 -110 70 -54 183 -59 262 -13 87 51 117 173 66
264 -14 25 -70 83 -128 134 -117 102 -135 128 -107 158 31 34 100 18 138 -34
11 -15 17 -12 62 28 l50 44 -25 27 c-63 68 -174 100 -248 72z"/>
<path d="M5260 620 l0 -360 65 0 c63 0 65 1 65 25 0 31 1 31 45 1 47 -32 111
-41 176 -26 76 19 151 93 174 174 59 204 -96 393 -283 346 -26 -6 -62 -23 -79
-36 l-33 -25 0 130 0 131 -65 0 -65 0 0 -360z m341 27 c91 -60 90 -194 -1
-255 -53 -36 -120 -27 -168 21 -31 32 -36 43 -39 94 -3 43 1 67 15 92 37 68
129 91 193 48z"/>
<path d="M9200 620 l0 -360 64 0 63 0 5 157 c4 121 9 166 21 190 21 40 53 63
88 63 79 0 89 -27 89 -240 l0 -170 65 0 65 0 0 200 c0 182 -2 204 -20 241 -47
92 -176 115 -272 48 -14 -11 -29 -19 -32 -19 -3 0 -6 56 -6 125 l0 125 -65 0
-65 0 0 -360z"/>
<path d="M1900 895 l0 -65 65 0 65 0 0 -285 0 -285 65 0 65 0 0 285 0 285 65
0 65 0 0 65 0 65 -195 0 -195 0 0 -65z"/>
<path d="M2380 610 l0 -350 65 0 64 0 3 153 3 152 105 -152 105 -152 78 0 c42
-1 77 1 77 4 0 3 -55 85 -123 183 -68 97 -126 182 -130 188 -3 6 35 64 86 130
51 65 105 136 121 157 l28 37 -80 0 -80 0 -81 -109 c-117 -157 -111 -156 -111
-12 l0 121 -65 0 -65 0 0 -350z"/>
<path d="M2970 610 l0 -350 65 0 65 0 0 350 0 350 -65 0 -65 0 0 -350z"/>
<path d="M3260 611 l0 -351 65 0 65 0 0 149 0 148 71 7 c84 7 125 23 161 62
35 38 48 74 48 138 0 77 -33 134 -94 165 -43 21 -67 25 -182 29 l-134 5 0
-352z m266 194 c8 -10 14 -33 14 -51 0 -44 -30 -64 -97 -64 l-53 0 0 71 0 71
61 -4 c45 -3 65 -10 75 -23z"/>
<path d="M4070 611 l0 -351 118 0 c64 0 137 5 162 11 93 21 150 95 150 195 0
85 -21 119 -109 181 -3 2 8 16 23 32 49 51 52 140 9 200 -38 52 -103 73 -234
79 l-119 5 0 -352z m231 201 c15 -13 22 -30 22 -52 0 -43 -32 -70 -84 -70
l-39 0 0 70 0 70 39 0 c23 0 48 -8 62 -18z m18 -256 c40 -21 53 -41 53 -82 0
-56 -28 -77 -107 -82 l-65 -4 0 91 0 91 45 0 c26 0 58 -6 74 -14z"/>
<path d="M4767 776 c-128 -46 -195 -196 -152 -342 24 -82 97 -156 173 -174 66
-15 130 -6 177 26 44 30 45 30 45 -1 0 -24 2 -25 65 -25 l65 0 0 260 0 260
-65 0 c-63 0 -65 -1 -65 -25 0 -30 -4 -31 -38 -6 -56 39 -139 50 -205 27z
m172 -124 c51 -27 73 -74 68 -145 -3 -51 -8 -62 -39 -94 -69 -69 -176 -51
-220 37 -65 130 67 269 191 202z"/>
<path d="M6718 781 c-15 -5 -40 -18 -57 -30 -37 -27 -41 -26 -41 4 0 24 -2 25
-65 25 l-65 0 0 -260 0 -260 64 0 63 0 5 158 c4 120 9 165 21 189 21 40 53 63
88 63 79 0 89 -27 89 -240 l0 -170 65 0 65 0 0 203 c0 190 -2 204 -23 241 -12
22 -36 48 -54 58 -36 22 -116 31 -155 19z"/>
<path d="M7298 781 c-15 -5 -40 -18 -57 -30 -37 -27 -41 -26 -41 4 0 24 -2 25
-65 25 l-65 0 0 -260 0 -260 64 0 63 0 5 158 c4 120 9 165 21 189 21 40 53 63
88 63 79 0 89 -27 89 -240 l0 -170 65 0 65 0 0 203 c0 190 -2 204 -23 241 -12
22 -36 48 -54 58 -36 22 -116 31 -155 19z"/>
<path d="M7807 776 c-128 -46 -195 -196 -152 -342 24 -82 97 -156 173 -174 66
-15 130 -6 177 26 44 30 45 30 45 -1 0 -24 2 -25 65 -25 l65 0 0 260 0 260
-65 0 c-63 0 -65 -1 -65 -25 0 -30 -4 -31 -38 -6 -56 39 -139 50 -205 27z
m172 -124 c51 -27 73 -74 68 -145 -3 -51 -8 -62 -39 -94 -69 -69 -176 -51
-220 37 -65 130 67 269 191 202z"/>
<path d="M8697 776 c-128 -46 -195 -196 -152 -342 24 -82 97 -156 173 -174 66
-15 130 -6 177 26 44 30 45 30 45 -1 0 -24 2 -25 65 -25 l65 0 0 260 0 260
-65 0 c-63 0 -65 -1 -65 -25 0 -30 -4 -31 -38 -6 -56 39 -139 50 -205 27z
m172 -124 c51 -27 73 -74 68 -145 -3 -51 -8 -62 -39 -94 -69 -69 -176 -51
-220 37 -65 130 67 269 191 202z"/>
<path d="M5912 588 c3 -191 3 -194 31 -241 39 -67 90 -91 187 -92 91 0 141 22
183 81 35 50 47 124 47 307 l0 137 -65 0 -65 0 0 -152 c0 -167 -9 -219 -43
-243 -32 -22 -81 -19 -113 8 -34 30 -43 80 -43 255 l-1 132 -61 0 -61 0 4
-192z"/>
<path d="M8300 486 c0 -327 1 -324 -65 -313 l-35 6 0 -49 0 -49 42 -12 c81
-21 152 8 175 72 8 23 12 129 12 337 l1 302 -65 0 -65 0 0 -294z"/>
</g>
</svg>
