<?xml version="1.0" standalone="no"?>
<!DOCTYPE svg PUBLIC "-//W3C//DTD SVG 20010904//EN"
 "http://www.w3.org/TR/2001/REC-SVG-20010904/DTD/svg10.dtd">
<svg version="1.0" xmlns="http://www.w3.org/2000/svg"
 width="850.000000pt" height="109.000000pt" viewBox="0 0 850.000000 109.000000"
 preserveAspectRatio="xMidYMid meet">

<g transform="translate(0.000000,109.000000) scale(0.100000,-0.100000)"
fill="#000000" stroke="none">
<path d="M7016 969 c-20 -16 -26 -29 -26 -59 0 -80 96 -107 147 -41 27 35 11
86 -34 109 -32 17 -57 15 -87 -9z"/>
<path d="M252 967 c-48 -18 -100 -74 -113 -120 -23 -87 14 -152 156 -276 120
-103 134 -133 90 -176 -40 -41 -87 -34 -138 18 l-42 44 -45 -28 c-25 -16 -49
-30 -55 -32 -14 -5 39 -81 77 -110 70 -54 183 -59 262 -13 87 51 117 173 66
264 -14 25 -70 83 -128 134 -117 102 -135 128 -107 158 31 34 100 18 138 -34
11 -15 17 -12 62 28 l50 44 -25 27 c-63 68 -174 100 -248 72z"/>
<path d="M3960 620 l0 -360 65 0 c63 0 65 1 65 25 0 31 1 31 45 1 47 -32 111
-41 176 -26 76 19 151 93 174 174 59 204 -96 393 -283 346 -26 -6 -62 -23 -79
-36 l-33 -25 0 130 0 131 -65 0 -65 0 0 -360z m341 27 c91 -60 90 -194 -1
-255 -53 -36 -120 -27 -168 21 -31 32 -36 43 -39 94 -3 43 1 67 15 92 37 68
129 91 193 48z"/>
<path d="M7900 620 l0 -360 64 0 63 0 5 157 c4 121 9 166 21 190 21 40 53 63
88 63 79 0 89 -27 89 -240 l0 -170 65 0 65 0 0 200 c0 182 -2 204 -20 241 -47
92 -176 115 -272 48 -14 -11 -29 -19 -32 -19 -3 0 -6 56 -6 125 l0 125 -65 0
-65 0 0 -360z"/>
<path d="M600 895 l0 -65 65 0 65 0 0 -285 0 -285 65 0 65 0 0 285 0 285 65 0
65 0 0 65 0 65 -195 0 -195 0 0 -65z"/>
<path d="M1080 610 l0 -350 65 0 64 0 3 153 3 152 105 -152 105 -152 78 0 c42
-1 77 1 77 4 0 3 -55 85 -123 183 -68 97 -126 182 -130 188 -3 6 35 64 86 130
51 65 105 136 121 157 l28 37 -80 0 -80 0 -81 -109 c-117 -157 -111 -156 -111
-12 l0 121 -65 0 -65 0 0 -350z"/>
<path d="M1670 610 l0 -350 65 0 65 0 0 350 0 350 -65 0 -65 0 0 -350z"/>
<path d="M1960 611 l0 -351 65 0 65 0 0 149 0 148 71 7 c84 7 125 23 161 62
35 38 48 74 48 138 0 77 -33 134 -94 165 -43 21 -67 25 -182 29 l-134 5 0
-352z m266 194 c8 -10 14 -33 14 -51 0 -44 -30 -64 -97 -64 l-53 0 0 71 0 71
61 -4 c45 -3 65 -10 75 -23z"/>
<path d="M2770 611 l0 -351 118 0 c64 0 137 5 162 11 93 21 150 95 150 195 0
85 -21 119 -109 181 -3 2 8 16 23 32 49 51 52 140 9 200 -38 52 -103 73 -234
79 l-119 5 0 -352z m231 201 c15 -13 22 -30 22 -52 0 -43 -32 -70 -84 -70
l-39 0 0 70 0 70 39 0 c23 0 48 -8 62 -18z m18 -256 c40 -21 53 -41 53 -82 0
-56 -28 -77 -107 -82 l-65 -4 0 91 0 91 45 0 c26 0 58 -6 74 -14z"/>
<path d="M3467 776 c-128 -46 -195 -196 -152 -342 24 -82 97 -156 173 -174 66
-15 130 -6 177 26 44 30 45 30 45 -1 0 -24 2 -25 65 -25 l65 0 0 260 0 260
-65 0 c-63 0 -65 -1 -65 -25 0 -30 -4 -31 -38 -6 -56 39 -139 50 -205 27z
m172 -124 c51 -27 73 -74 68 -145 -3 -51 -8 -62 -39 -94 -69 -69 -176 -51
-220 37 -65 130 67 269 191 202z"/>
<path d="M5418 781 c-15 -5 -40 -18 -57 -30 -37 -27 -41 -26 -41 4 0 24 -2 25
-65 25 l-65 0 0 -260 0 -260 64 0 63 0 5 158 c4 120 9 165 21 189 21 40 53 63
88 63 79 0 89 -27 89 -240 l0 -170 65 0 65 0 0 203 c0 190 -2 204 -23 241 -12
22 -36 48 -54 58 -36 22 -116 31 -155 19z"/>
<path d="M5998 781 c-15 -5 -40 -18 -57 -30 -37 -27 -41 -26 -41 4 0 24 -2 25
-65 25 l-65 0 0 -260 0 -260 64 0 63 0 5 158 c4 120 9 165 21 189 21 40 53 63
88 63 79 0 89 -27 89 -240 l0 -170 65 0 65 0 0 203 c0 190 -2 204 -23 241 -12
22 -36 48 -54 58 -36 22 -116 31 -155 19z"/>
<path d="M6507 776 c-128 -46 -195 -196 -152 -342 24 -82 97 -156 173 -174 66
-15 130 -6 177 26 44 30 45 30 45 -1 0 -24 2 -25 65 -25 l65 0 0 260 0 260
-65 0 c-63 0 -65 -1 -65 -25 0 -30 -4 -31 -38 -6 -56 39 -139 50 -205 27z
m172 -124 c51 -27 73 -74 68 -145 -3 -51 -8 -62 -39 -94 -69 -69 -176 -51
-220 37 -65 130 67 269 191 202z"/>
<path d="M7397 776 c-128 -46 -195 -196 -152 -342 24 -82 97 -156 173 -174 66
-15 130 -6 177 26 44 30 45 30 45 -1 0 -24 2 -25 65 -25 l65 0 0 260 0 260
-65 0 c-63 0 -65 -1 -65 -25 0 -30 -4 -31 -38 -6 -56 39 -139 50 -205 27z
m172 -124 c51 -27 73 -74 68 -145 -3 -51 -8 -62 -39 -94 -69 -69 -176 -51
-220 37 -65 130 67 269 191 202z"/>
<path d="M4612 588 c3 -191 3 -194 31 -241 39 -67 90 -91 187 -92 91 0 141 22
183 81 35 50 47 124 47 307 l0 137 -65 0 -65 0 0 -152 c0 -167 -9 -219 -43
-243 -32 -22 -81 -19 -113 8 -34 30 -43 80 -43 255 l-1 132 -61 0 -61 0 4
-192z"/>
<path d="M7000 486 c0 -327 1 -324 -65 -313 l-35 6 0 -49 0 -49 42 -12 c81
-21 152 8 175 72 8 23 12 129 12 337 l1 302 -65 0 -65 0 0 -294z"/>
</g>
</svg>
